<svg xmlns="http://www.w3.org/2000/svg" xmlns:xlink="http://www.w3.org/1999/xlink" version="1.1" x="0px" y="0px" viewBox="0 0 100 125" enable-background="new 0 0 100 100" xml:space="preserve"><path d="M80.16,71.352c-0.161-0.161-0.336-0.317-0.52-0.464L67.131,59.859c7.032-10.434,5.938-24.754-3.285-33.977  c-5.07-5.07-11.812-7.863-18.982-7.863s-13.912,2.792-18.982,7.863c-5.07,5.07-7.863,11.812-7.863,18.982s2.792,13.912,7.863,18.982  c5.07,5.07,11.812,7.862,18.982,7.862c5.769,0,11.259-1.809,15.826-5.155c0.425-0.2,0.703-0.414,0.983-0.693l2.166-2.006  c0.003-0.003,0.005-0.005,0.008-0.008c0.003-0.003,0.005-0.005,0.007-0.008l0.865-0.865l12.361,10.899  c0.029,0.026,0.059,0.05,0.089,0.074c0.079,0.062,0.148,0.122,0.211,0.186c0.434,0.434,0.673,1.011,0.673,1.624  c0,0.613-0.239,1.19-0.673,1.624c-0.895,0.896-2.353,0.896-3.248,0c-0.063-0.063-0.124-0.133-0.187-0.213  c-0.024-0.03-0.048-0.06-0.074-0.089l-8.416-9.548c-0.718-0.814-1.96-0.893-2.775-0.175c-0.815,0.718-0.893,1.96-0.175,2.775  l8.381,9.509c0.148,0.186,0.304,0.361,0.465,0.522c1.214,1.214,2.809,1.821,4.404,1.821c1.595,0,3.19-0.607,4.404-1.821  C82.588,77.731,82.588,73.78,80.16,71.352z M28.662,61.066c-4.328-4.328-6.711-10.082-6.711-16.202  c0-6.12,2.383-11.874,6.711-16.202c4.328-4.328,10.082-6.711,16.202-6.711c6.12,0,11.874,2.383,16.202,6.711  c8.931,8.931,8.934,23.462,0.007,32.396l-0.015,0.015c-4.327,4.323-10.077,6.703-16.194,6.703  C38.743,67.777,32.989,65.393,28.662,61.066z"/><text x="0" y="115" fill="#000000" font-size="5px" font-weight="bold" font-family="'Helvetica Neue', Helvetica, Arial-Unicode, Arial, Sans-serif">Created by Gregor Cresnar</text><text x="0" y="120" fill="#000000" font-size="5px" font-weight="bold" font-family="'Helvetica Neue', Helvetica, Arial-Unicode, Arial, Sans-serif">from the Noun Project</text></svg>