<svg xmlns="http://www.w3.org/2000/svg" xmlns:xlink="http://www.w3.org/1999/xlink" version="1.1" x="0px" y="0px" viewBox="-255 347 100 125" style="enable-background:new -255 347 100 100;" xml:space="preserve"><path d="M-215.3,391.2L-215.3,391.2c2.1-0.5,4.6-1.3,4.4-3.8c0-0.3-0.1-0.5-0.2-0.7c-0.7-1.1-3-1.1-4.1-1.2h-0.1  c-1.1,0.1-3.4,0.1-4.1,1.2c-0.1,0.2-0.2,0.5-0.2,0.7C-219.8,389.8-217.3,390.6-215.3,391.2z"/><path d="M-166.4,409c-0.1-0.9-0.9-1.6-1.8-1.8c-0.9-0.1-1.9,0.3-2.3,1.2c-1.8,3.7-5.3,5.5-7,6.2c-4.2-14.2-17.7-19.2-22.5-20.5  c1.8-2.3,3-5,3.8-7.7c2.3-0.2,8.5-1.3,9.3-8.7c0.9-8.4-2.7-15.8-10-20.4c-7-4.3-17.6-3.2-18.4-3.1c-1.1-0.1-11.5-1.1-18.3,3.2  c-7.3,4.6-11,12-10,20.4c0.8,7.4,7,8.5,9.3,8.7c0.8,2.8,2,5.6,3.9,7.9c0.3,0.3,0.6,0.6,0.9,0.9c-2.2,1.7-3.6,4.4-3.6,7.2v28.4  c0,5,4.1,9.1,9.1,9.1c3.7,0,6.9-2.2,8.3-5.3c1.6,2.8,4.5,4.7,8,4.7c3.3,0,6.2-1.8,7.8-4.4c2.8,2.2,5.5,3.3,8.3,3.3  c0.9,0,1.8-0.1,2.8-0.3c5-1.2,9.2-4.5,11.1-8.7c0.5-1.2,0.9-2.5,1.1-3.8C-166.2,421.2-165.7,413.4-166.4,409z M-232.9,369.5  c0.1-0.5-0.2-1.1-0.8-1.2c-0.5-0.1-1.1,0.2-1.2,0.8c-0.1,0.4-1.5,7.8,0,15.3c-2.1-0.2-6.2-1.4-6.8-6.9c-0.9-7.7,2.4-14.3,9.1-18.5  c6.5-4,17-2.9,17.1-2.9h0.2h0.1c0.2,0.1,10.7-1.1,17.2,2.9c6.7,4.2,10,10.7,9.1,18.5c-0.6,5.4-4.7,6.6-6.8,6.9  c1.5-7.5,0.1-14.8,0-15.3c-0.1-0.5-0.6-0.9-1.2-0.8c-0.5,0.1-0.9,0.6-0.8,1.2c0,0.2,2.9,15.2-4,23.6c-3.1,3.7-7.6,5.6-13.7,5.6  c-6,0-10.5-1.9-13.6-5.6C-235.8,384.7-232.9,369.6-232.9,369.5z M-179.6,428.4c-1.6,3.6-5.3,6.5-9.7,7.5c-3.4,0.8-6.4-0.1-9.8-2.9  c0.3-0.9,0.5-1.9,0.5-2.9v-17.7c0-0.6-0.4-1-1-1c-0.6,0-1,0.4-1,1v17.8c0,3.9-3.2,7.1-7.1,7.1c-3.9,0-7.1-3.2-7.1-7.1v-12.6  c1.7-0.2,3.2-0.7,4.3-1.6c0.4-0.3,0.5-1,0.1-1.4c-0.3-0.4-1-0.5-1.4-0.1c-0.9,0.7-2.4,1.2-4,1.2c-1.6,0-3.1-0.4-4-1.2  c-0.4-0.3-1.1-0.3-1.4,0.1s-0.3,1.1,0.1,1.4c1.1,0.9,2.6,1.4,4.3,1.6v13.2c0,3.9-3.2,7.1-7.1,7.1c-3.9,0-7.1-3.2-7.1-7.1v-28.3  c0-2.3,1.2-4.5,3.1-5.9c3.3,2.6,7.5,4,12.8,4c5.7,0,10.3-1.6,13.7-4.8c3,0.7,19.3,5.2,22.6,21.6  C-178.3,420.3-177.9,424.6-179.6,428.4z M-176.4,423.1c0.1-1.9-0.1-4-0.5-6.1c0-0.1-0.1-0.3-0.1-0.4c1.8-0.7,6-2.8,8.3-7.3  c0,0,0.1-0.1,0.2-0.1s0.1,0.1,0.1,0.1C-167.7,413.7-168.6,419.6-176.4,423.1z"/><path d="M-206.5,380.2c1.5,0,2.7-1.5,2.7-3.3c0-0.1,0-0.2,0-0.3c-0.1,0-0.2,0.1-0.4,0.1c-0.7,0-1.3-0.6-1.3-1.3  c0-0.5,0.3-0.9,0.7-1.1c-0.5-0.4-1-0.7-1.6-0.7c-1.5,0-2.7,1.5-2.7,3.3C-209.2,378.7-208,380.2-206.5,380.2z"/><path d="M-224,380.2c1.5,0,2.7-1.5,2.7-3.3c0-0.1,0-0.2,0-0.3c-0.1,0-0.2,0.1-0.4,0.1c-0.7,0-1.3-0.6-1.3-1.3c0-0.5,0.3-0.9,0.7-1.1  c-0.5-0.4-1-0.7-1.6-0.7c-1.5,0-2.7,1.5-2.7,3.3C-226.7,378.7-225.5,380.2-224,380.2z"/><circle cx="-207.2" cy="387.7" r="0.7"/><circle cx="-205.6" cy="390.2" r="0.7"/><circle cx="-203.6" cy="387" r="0.7"/><circle cx="-223.7" cy="387.7" r="0.7"/><circle cx="-225.4" cy="390.2" r="0.7"/><circle cx="-227.4" cy="387" r="0.7"/><path d="M-206.5,385.1c3.5,0,6.4-3.7,6.4-8.2s-2.9-8.2-6.4-8.2s-6.4,3.7-6.4,8.2S-210,385.1-206.5,385.1z M-206.5,370.8  c2.4,0,4.4,2.8,4.4,6.2s-2,6.2-4.4,6.2s-4.4-2.8-4.4-6.2S-208.9,370.8-206.5,370.8z"/><text x="-255" y="462" fill="#000000" font-size="5px" font-weight="bold" font-family="'Helvetica Neue', Helvetica, Arial-Unicode, Arial, Sans-serif">Created by Alina Oleynik</text><text x="-255" y="467" fill="#000000" font-size="5px" font-weight="bold" font-family="'Helvetica Neue', Helvetica, Arial-Unicode, Arial, Sans-serif">from the Noun Project</text></svg>